<svg width="20" height="20" viewBox="0 0 20 20" fill="none" xmlns="http://www.w3.org/2000/svg"><g opacity=".6" clip-path="url(#a)"><path d="M6.667 6.667V4.333c0-.933 0-1.4.181-1.756.16-.314.415-.569.729-.729.356-.181.823-.181 1.756-.181h6.334c.933 0 1.4 0 1.756.181.314.16.569.415.729.729.181.356.181.823.181 1.756v6.334c0 .933 0 1.4-.181 1.756-.16.314-.415.569-.729.729-.356.181-.823.181-1.756.181h-2.334m-9 5h6.334c.933 0 1.4 0 1.756-.181.314-.16.569-.415.729-.729.181-.356.181-.823.181-1.756V9.333c0-.933 0-1.4-.181-1.756a1.67 1.67 0 0 0-.729-.729c-.356-.181-.823-.181-1.756-.181H4.333c-.933 0-1.4 0-1.756.181-.314.16-.569.415-.729.729-.181.356-.181.823-.181 1.756v6.334c0 .933 0 1.4.181 1.756.16.314.415.569.729.729.356.181.823.181 1.756.181" stroke="#fff" stroke-width="2" stroke-linecap="round" stroke-linejoin="round"/></g><defs><clipPath id="a"><path fill="#fff" d="M0 0h20v20H0z"/></clipPath></defs></svg>